<svg xmlns="http://www.w3.org/2000/svg" viewBox="0 0 640 512">
  <path fill="#0080ff"
    d="M544 192c-13.25 0-24 10.75-24 24 0 1.938.281 3.875.781 5.688-9.75-4.75-20.75-7.688-32.781-7.688-37.344 0-64 30.219-64 64 0 1.406.125 2.75.281 4.094-30.281-11.219-64.281-3.625-87.125 19.25-22.813 22.813-30.438 56.813-19.25 87.125-1.344-.156-2.719-.281-4.094-.281-33.75 0-64 30.219-64 64 0 1.938.281 3.875.781 5.688-9.75-4.75-20.75-7.688-32.781-7.688-37.344 0-64 30.219-64 64 0 1.438.125 2.75.281 4.094-30.281-11.219-64.281-3.625-87.125 19.25C32.687 390.75 24.063 424.75 35.25 455c1.344-.156 2.719-.281 4.094-.281 33.75 0 64 30.219 64 64 0 13.25 10.75 24 24 24h480c13.25 0 24-10.75 24-24 0-79-64-143-143-143z" />
</svg>